<svg width="15" height="15" viewBox="0 0 15 15" fill="none" xmlns="http://www.w3.org/2000/svg">
<path d="M8.4375 4.21875C8.4375 5.33763 7.99303 6.41069 7.20186 7.20186C6.41069 7.99303 5.33763 8.4375 4.21875 8.4375C3.09987 8.4375 2.02681 7.99303 1.23564 7.20186C0.444474 6.41069 0 5.33763 0 4.21875C0 3.09987 0.444474 2.02681 1.23564 1.23564C2.02681 0.444474 3.09987 0 4.21875 0C5.33763 0 6.41069 0.444474 7.20186 1.23564C7.99303 2.02681 8.4375 3.09987 8.4375 4.21875ZM4.6875 2.34375C4.6875 2.21943 4.63811 2.1002 4.55021 2.01229C4.4623 1.92439 4.34307 1.875 4.21875 1.875C4.09443 1.875 3.9752 1.92439 3.88729 2.01229C3.79939 2.1002 3.75 2.21943 3.75 2.34375V3.75H2.34375C2.21943 3.75 2.1002 3.79939 2.01229 3.88729C1.92439 3.9752 1.875 4.09443 1.875 4.21875C1.875 4.34307 1.92439 4.4623 2.01229 4.55021C2.1002 4.63811 2.21943 4.6875 2.34375 4.6875H3.75V6.09375C3.75 6.21807 3.79939 6.3373 3.88729 6.42521C3.9752 6.51311 4.09443 6.5625 4.21875 6.5625C4.34307 6.5625 4.4623 6.51311 4.55021 6.42521C4.63811 6.3373 4.6875 6.21807 4.6875 6.09375V4.6875H6.09375C6.21807 4.6875 6.3373 4.63811 6.42521 4.55021C6.51311 4.4623 6.5625 4.34307 6.5625 4.21875C6.5625 4.09443 6.51311 3.9752 6.42521 3.88729C6.3373 3.79939 6.21807 3.75 6.09375 3.75H4.6875V2.34375ZM12.1875 2.8125H9.18094C9.08921 2.48866 8.9658 2.17464 8.8125 1.875H12.1875C12.9049 1.87496 13.5952 2.14905 14.1171 2.6412C14.6391 3.13335 14.9532 3.80635 14.9953 4.5225L15 4.6875V8.79281C14.9999 9.23302 14.8449 9.65915 14.5622 9.99656L14.4506 10.1184L10.1184 14.4506C9.80717 14.7619 9.3963 14.9537 8.95781 14.9925L8.79281 15H4.6875C3.97011 15 3.27983 14.7259 2.75788 14.2338C2.23593 13.7416 1.92177 13.0686 1.87969 12.3525L1.875 12.1875V8.8125C2.17219 8.96437 2.48531 9.08813 2.8125 9.18094V12.1875C2.81235 12.6605 2.99101 13.1162 3.31265 13.463C3.6343 13.8099 4.07517 14.0223 4.54688 14.0578L4.6875 14.0625H8.4375V11.25C8.43746 10.5326 8.71155 9.84233 9.2037 9.32038C9.69585 8.79843 10.3689 8.48427 11.085 8.44219L11.25 8.4375H14.0625V4.6875C14.0626 4.21446 13.884 3.75884 13.5623 3.41199C13.2407 3.06513 12.7998 2.85267 12.3281 2.81719L12.1875 2.8125ZM13.8591 9.37594L11.25 9.375C10.777 9.37485 10.3213 9.55351 9.97449 9.87515C9.62763 10.1968 9.41517 10.6377 9.37969 11.1094L9.375 11.25V13.8572L9.45563 13.7878L13.7878 9.45563C13.813 9.43064 13.8365 9.40402 13.8581 9.37594" fill="black"/>
</svg>
