<svg width="29" height="15" viewBox="0 0 29 15" fill="none" xmlns="http://www.w3.org/2000/svg">
<path d="M27.5513 14.1776H12.4043C12.0202 14.177 11.652 14.024 11.3804 13.7523C11.1089 13.4807 10.9561 13.1124 10.9556 12.7283V4.02764C10.9559 3.6434 11.1086 3.27498 11.3802 3.00316C11.6518 2.73135 12.02 2.57832 12.4043 2.57764H27.5513C27.9354 2.57832 28.3036 2.73126 28.5752 3.00294C28.8467 3.27461 28.9995 3.64287 29 4.02699V12.7276C29.0004 12.9181 28.9633 13.1067 28.8906 13.2827C28.818 13.4588 28.7113 13.6187 28.5767 13.7534C28.4421 13.8881 28.2823 13.995 28.1063 14.0678C27.9303 14.1405 27.7417 14.1779 27.5513 14.1776Z" fill="#00A6ED"/>
<path d="M24.7374 10.3112H13.2844C13.1794 10.3107 13.0788 10.2686 13.0047 10.1943C12.9305 10.1199 12.8888 10.0192 12.8887 9.9142V8.13038C12.8887 7.91578 13.064 7.7334 13.2844 7.7334H24.7374C24.9514 7.7334 25.1331 7.90933 25.1331 8.13038V9.92064C25.1329 9.97229 25.1224 10.0234 25.1024 10.071C25.0823 10.1186 25.0531 10.1618 25.0163 10.1981C24.9796 10.2343 24.936 10.263 24.8882 10.2824C24.8403 10.3018 24.7891 10.3116 24.7374 10.3112Z" fill="#F4F4F4"/>
<path d="M26.0053 12.8889H27.1614C27.2337 12.8893 27.3054 12.8754 27.3723 12.8479C27.4392 12.8204 27.4999 12.7799 27.5511 12.7288C27.6022 12.6777 27.6427 12.6169 27.6702 12.55C27.6976 12.4831 27.7116 12.4115 27.7111 12.3392V11.183C27.7116 11.1107 27.6976 11.039 27.6702 10.9722C27.6427 10.9053 27.6022 10.8445 27.5511 10.7934C27.4999 10.7422 27.4392 10.7018 27.3723 10.6743C27.3054 10.6468 27.2337 10.6329 27.1614 10.6333H26.0053C25.933 10.6329 25.8613 10.6468 25.7944 10.6743C25.7275 10.7018 25.6668 10.7422 25.6156 10.7934C25.5645 10.8445 25.524 10.9053 25.4965 10.9722C25.4691 11.039 25.4551 11.1107 25.4556 11.183V12.3392C25.4568 12.4846 25.515 12.6237 25.6179 12.7266C25.7207 12.8294 25.8599 12.8877 26.0053 12.8889Z" fill="#FFF478"/>
<path d="M29 4.51123H10.9556V6.44456H29V4.51123Z" fill="#321B41"/>
<path d="M13.5332 9.02242C13.5332 8.93696 13.5672 8.855 13.6276 8.79457C13.688 8.73414 13.77 8.7002 13.8554 8.7002H20.9443C21.0298 8.7002 21.1117 8.73414 21.1722 8.79457C21.2326 8.855 21.2665 8.93696 21.2665 9.02242C21.2665 9.10788 21.2326 9.18983 21.1722 9.25026C21.1117 9.31069 21.0298 9.34464 20.9443 9.34464H13.8554C13.77 9.34464 13.688 9.31069 13.6276 9.25026C13.5672 9.18983 13.5332 9.10788 13.5332 9.02242Z" fill="#9B9B9B"/>
<path d="M16.9634 11.4641H1.15391C0.519538 11.4641 0.00146484 10.946 0.00146484 10.3116V1.15245C0.00146484 0.518073 0.519538 0 1.15391 0H16.9634C17.5978 0 18.1159 0.518073 18.1159 1.15245V10.3116C18.1159 10.946 17.5978 11.4641 16.9634 11.4641Z" fill="#FFC107"/>
<path d="M0 1.9375H18.1174V4.36474H0V1.9375Z" fill="#424242"/>
<path d="M16.6402 7.26363H1.48618C1.33816 7.26363 1.21582 7.14279 1.21582 6.99326V5.723C1.21582 5.57498 1.33665 5.45264 1.48618 5.45264H16.6402C16.7882 5.45264 16.9106 5.57347 16.9106 5.723V6.99326C16.909 7.14128 16.7882 7.26363 16.6402 7.26363Z" fill="white"/>
<path d="M3.01318 6.71213C3.09777 6.549 3.12042 6.35869 3.19594 6.19104C3.27146 6.02338 3.4361 5.86781 3.61735 5.8965C3.78501 5.92369 3.88923 6.09135 3.95115 6.24843C4.03725 6.46744 4.08407 6.70156 4.09011 6.93718C4.09162 6.98552 4.0886 7.03838 4.05688 7.07614C4.001 7.13958 3.8862 7.10786 3.8424 7.03536C3.7986 6.96286 3.80917 6.87072 3.82881 6.78765C3.92245 6.40249 4.22454 6.07473 4.60063 5.95088C4.6399 5.93729 4.68068 5.92671 4.72146 5.93426C4.80907 5.95088 4.8574 6.0415 4.89667 6.12005C4.98881 6.29979 5.10058 6.47046 5.22896 6.62604C5.28032 6.68947 5.33923 6.7514 5.41777 6.77557C5.67605 6.85109 5.82558 6.47046 6.0748 6.36927C6.37386 6.24843 6.66537 6.56411 6.98256 6.62302C7.44626 6.70911 7.69245 6.34812 8.09876 6.25598C8.15313 6.2439 8.21204 6.23635 8.26641 6.25145C8.3661 6.28015 8.42803 6.37531 8.48693 6.4614C8.62438 6.6638 8.82074 6.86317 9.06542 6.86468C9.221 6.86619 9.36448 6.78614 9.50646 6.71817C10.0094 6.47802 10.603 6.37833 11.1287 6.5626" stroke="#424242" stroke-width="0.302083" stroke-miterlimit="10" stroke-linecap="round" stroke-linejoin="round"/>
</svg>
