<svg width="15" height="12" viewBox="0 0 15 12" fill="none" xmlns="http://www.w3.org/2000/svg">
<path d="M4.96174 8.80876L10.0387 3.73183M0.879883 10.3318C0.879882 10.6008 0.986581 10.8587 1.17656 11.0491C1.36655 11.2395 1.62429 11.3467 1.89324 11.3472H13.0666C13.3355 11.3467 13.5932 11.2395 13.7832 11.0491C13.9732 10.8587 14.0799 10.6008 14.0799 10.3318V8.26654C13.6415 8.14766 13.2544 7.88775 12.9784 7.52696C12.7024 7.16616 12.5529 6.72454 12.5529 6.27029C12.5529 5.81604 12.7024 5.37442 12.9784 5.01363C13.2544 4.65283 13.6415 4.39293 14.0799 4.27404V2.20875C14.0799 1.9398 13.9732 1.68184 13.7832 1.49148C13.5932 1.30111 13.3355 1.1939 13.0666 1.19336H1.89324C1.62429 1.1939 1.36655 1.30111 1.17656 1.49148C0.986581 1.68184 0.879882 1.9398 0.879883 2.20875V4.26998C1.3218 4.38621 1.71279 4.64551 1.99179 5.00739C2.2708 5.36926 2.42211 5.81335 2.42211 6.27029C2.42211 6.72724 2.2708 7.17132 1.99179 7.5332C1.71279 7.89507 1.3218 8.15437 0.879883 8.2706V10.3318Z" stroke="#2A2A2A" stroke-width="1.01539" stroke-linecap="round" stroke-linejoin="round"/>
<path d="M5.46912 4.74732C5.60377 4.74732 5.7329 4.69383 5.82811 4.59862C5.92332 4.50341 5.97681 4.37428 5.97681 4.23963C5.97681 4.10498 5.92332 3.97584 5.82811 3.88063C5.7329 3.78542 5.60377 3.73193 5.46912 3.73193C5.33447 3.73193 5.20534 3.78542 5.11013 3.88063C5.01491 3.97584 4.96143 4.10498 4.96143 4.23963C4.96143 4.37428 5.01491 4.50341 5.11013 4.59862C5.20534 4.69383 5.33447 4.74732 5.46912 4.74732ZM9.53067 8.80887C9.66531 8.80887 9.79445 8.75538 9.88966 8.66017C9.98487 8.56496 10.0384 8.43582 10.0384 8.30117C10.0384 8.16652 9.98487 8.03739 9.88966 7.94218C9.79445 7.84697 9.66531 7.79348 9.53067 7.79348C9.39602 7.79348 9.26688 7.84697 9.17167 7.94218C9.07646 8.03739 9.02297 8.16652 9.02297 8.30117C9.02297 8.43582 9.07646 8.56496 9.17167 8.66017C9.26688 8.75538 9.39602 8.80887 9.53067 8.80887Z" stroke="#2A2A2A" stroke-width="1.01539" stroke-linecap="round" stroke-linejoin="round"/>
</svg>
