<svg width="18" height="18" viewBox="0 0 18 18" fill="none" xmlns="http://www.w3.org/2000/svg">
<path d="M16.8741 5.02743H12.459C12.8704 4.8456 13.2525 4.6036 13.5927 4.30938C13.8286 4.0996 14.0186 3.84335 14.1508 3.55668C14.283 3.27002 14.3546 2.95912 14.361 2.6435C14.3711 2.29374 14.3098 1.94558 14.1806 1.62038C14.0514 1.29519 13.8571 0.999818 13.6097 0.752389C13.3622 0.504961 13.0669 0.310692 12.7417 0.181498C12.4165 0.0523053 12.0683 -0.00908748 11.7186 0.00108601C11.4029 0.00749395 11.092 0.0790479 10.8054 0.21126C10.5187 0.343472 10.2625 0.53349 10.0527 0.769398C9.52222 1.36807 9.18833 2.14805 8.97561 2.89572C8.76468 2.14805 8.43079 1.36987 7.89853 0.769398C7.68876 0.53349 7.4325 0.343472 7.14584 0.21126C6.85917 0.0790479 6.54828 0.00749395 6.23266 0.00108601C5.88289 -0.00908748 5.53473 0.0523053 5.20954 0.181498C4.88434 0.310692 4.58897 0.504961 4.34155 0.752389C4.09412 0.999818 3.89985 1.29519 3.77066 1.62038C3.64146 1.94558 3.58007 2.29374 3.59024 2.6435C3.59665 2.95912 3.6682 3.27002 3.80042 3.55668C3.93263 3.84335 4.12265 4.0996 4.35855 4.30938C4.69874 4.6036 5.08079 4.8456 5.49217 5.02743H1.07707C0.791415 5.02743 0.517458 5.1409 0.315467 5.34289C0.113477 5.54488 0 5.81884 0 6.1045V8.97669C0 9.26235 0.113477 9.53631 0.315467 9.7383C0.517458 9.94029 0.791415 10.0538 1.07707 10.0538H1.4361V16.1572C1.4361 16.4428 1.54957 16.7168 1.75156 16.9188C1.95355 17.1208 2.22751 17.2342 2.51317 17.2342H15.438C15.7237 17.2342 15.9977 17.1208 16.1996 16.9188C16.4016 16.7168 16.5151 16.4428 16.5151 16.1572V10.0538H16.8741C17.1598 10.0538 17.4338 9.94029 17.6357 9.7383C17.8377 9.53631 17.9512 9.26235 17.9512 8.97669V6.1045C17.9512 5.81884 17.8377 5.54488 17.6357 5.34289C17.4338 5.1409 17.1598 5.02743 16.8741 5.02743ZM10.5912 1.24511C10.7362 1.08305 10.913 0.952683 11.1107 0.862175C11.3084 0.771667 11.5227 0.72297 11.7401 0.719134H11.7948C12.0421 0.719396 12.2868 0.769202 12.5145 0.865611C12.7422 0.96202 12.9483 1.10308 13.1205 1.28045C13.2928 1.45783 13.4278 1.66792 13.5175 1.89833C13.6072 2.12874 13.6499 2.3748 13.6429 2.62196C13.639 2.83935 13.5903 3.05359 13.4998 3.25128C13.4093 3.44897 13.279 3.62585 13.117 3.77084C12.0318 4.73123 10.1487 4.95652 9.3472 5.00858C9.40284 4.21334 9.62724 2.33474 10.5912 1.24511ZM4.30829 2.62196C4.30134 2.3748 4.34398 2.12874 4.4337 1.89833C4.52342 1.66792 4.6584 1.45783 4.83068 1.28045C5.00295 1.10308 5.20901 0.96202 5.43671 0.865611C5.6644 0.769202 5.9091 0.719396 6.15637 0.719134H6.21112C6.42851 0.72297 6.64277 0.771667 6.84047 0.862175C7.03817 0.952683 7.21504 1.08305 7.36 1.24511C8.32128 2.33026 8.54567 4.21334 8.59773 5.01486C7.7998 4.9628 5.91672 4.73751 4.82798 3.77712C4.66634 3.63086 4.53672 3.45272 4.44728 3.25391C4.35785 3.05511 4.31052 2.83995 4.30829 2.62196ZM0.718048 8.97669V6.1045C0.718048 6.00928 0.755874 5.91796 0.823204 5.85063C0.890534 5.7833 0.981854 5.74547 1.07707 5.74547H8.61658V9.33572H1.07707C0.981854 9.33572 0.890534 9.29789 0.823204 9.23056C0.755874 9.16323 0.718048 9.07191 0.718048 8.97669ZM2.15415 16.1572V10.0538H8.61658V16.5162H2.51317C2.41795 16.5162 2.32663 16.4784 2.2593 16.411C2.19197 16.3437 2.15415 16.2524 2.15415 16.1572ZM15.7971 16.1572C15.7971 16.2524 15.7592 16.3437 15.6919 16.411C15.6246 16.4784 15.5333 16.5162 15.438 16.5162H9.33463V10.0538H15.7971V16.1572ZM17.2332 8.97669C17.2332 9.07191 17.1953 9.16323 17.128 9.23056C17.0607 9.29789 16.9694 9.33572 16.8741 9.33572H9.33463V5.74547H16.8741C16.9694 5.74547 17.0607 5.7833 17.128 5.85063C17.1953 5.91796 17.2332 6.00928 17.2332 6.1045V8.97669Z" fill="#181818"/>
</svg>
