<svg width="36" height="15" viewBox="0 0 36 15" fill="none" xmlns="http://www.w3.org/2000/svg">
<path d="M25.518 3.8711C26.5076 3.8711 27.2724 4.14103 27.8573 4.68089C28.4421 5.22068 28.7119 5.94046 28.7119 6.84018V11.1588H27.4524V10.1692H27.4074C26.8676 10.979 26.1028 11.3838 25.2031 11.3838C24.4383 11.3838 23.7635 11.1588 23.2237 10.7091C22.7288 10.2592 22.4139 9.62941 22.4139 8.95462C22.4139 8.23483 22.6839 7.64997 23.2237 7.20011C23.7635 6.75025 24.5283 6.57032 25.428 6.57032C26.2377 6.57032 26.8676 6.70532 27.3624 7.02018V6.70532C27.3624 6.28542 27.2056 5.86558 26.8921 5.592L26.8225 5.53568C26.4626 5.22075 26.0128 5.04082 25.518 5.04082C24.7532 5.04082 24.1684 5.35575 23.7635 5.98553L22.5939 5.26561C23.3136 4.32089 24.2583 3.8711 25.518 3.8711ZM19.175 0.812012C19.9821 0.812012 20.7493 1.09291 21.3626 1.61674L21.4693 1.71166C22.099 2.25152 22.4139 3.06131 22.4139 3.91603C22.4139 4.77075 22.099 5.53553 21.4693 6.12032C20.8394 6.70518 20.0747 7.02004 19.175 7.02004L17.0157 6.97504V11.1588H15.666V0.812012H19.175ZM25.6979 7.6499C25.1581 7.6499 24.7082 7.78483 24.3483 8.05476C23.9884 8.27969 23.8085 8.59455 23.8085 8.99941C23.8085 9.35934 23.9885 9.6742 24.2583 9.8542C24.5733 10.0791 24.9331 10.2141 25.2931 10.2141C25.7969 10.2141 26.3007 10.0181 26.6948 9.66281L26.7776 9.58427C27.2274 9.17941 27.4524 8.68455 27.4524 8.14469C27.0475 7.82983 26.4626 7.64983 25.6979 7.64983M19.265 2.07152H17.0157V5.67061H19.265C19.7598 5.67061 20.2547 5.49068 20.5696 5.13082C21.2893 4.45603 21.2893 3.33138 20.6146 2.65652L20.5696 2.61152C20.2097 2.25166 19.7598 2.02673 19.265 2.07173M35.9997 4.09603L31.5461 14.3079H30.1965L31.861 10.754L28.9369 4.14103H30.3764L32.4907 9.22441H32.5357L34.6051 4.14103H35.9997V4.09603Z" fill="#5F6368"/>
<path d="M11.6623 6.07542C11.6623 5.67056 11.6173 5.2657 11.5723 4.86084H5.94922V7.15514H9.14316C9.00823 7.87486 8.60337 8.54964 7.97359 8.95457V10.4391H9.90795C11.0326 9.40443 11.6624 7.87485 11.6624 6.07549" fill="#4285F4"/>
<path d="M5.94943 11.879C7.56886 11.879 8.91844 11.3391 9.90816 10.4394L7.97379 8.95487C7.43393 9.31473 6.75914 9.53966 5.94943 9.53966C4.41985 9.53966 3.07027 8.50501 2.62041 7.06543H0.641113V8.59494C1.67576 10.6193 3.70013 11.879 5.94943 11.879Z" fill="#34A853"/>
<path d="M2.62039 7.06502C2.35053 6.34523 2.35053 5.53551 2.62039 4.77072V3.24121H0.641092C-0.213697 4.90572 -0.213697 6.88509 0.641092 8.59452L2.62039 7.06502Z" fill="#FBBC04"/>
<path d="M5.94942 2.34171C6.80414 2.34171 7.61386 2.65664 8.24371 3.24143L9.95315 1.53199C8.87343 0.542274 7.43393 -0.0425151 5.99435 0.00241456C3.74505 0.00241456 1.67575 1.26206 0.686035 3.28643L2.6654 4.81594C3.07026 3.37636 4.41984 2.34171 5.94942 2.34171Z" fill="#EA4335"/>
</svg>
