<svg width="17" height="17" viewBox="0 0 17 17" fill="none" xmlns="http://www.w3.org/2000/svg">
<path d="M0.850181 15.4098L3.90233 12.2648H13.6029C14.0539 12.2648 14.4863 12.0802 14.8052 11.7516C15.1241 11.423 15.3033 10.9774 15.3033 10.5127V2.62817C15.3033 2.16348 15.1241 1.71782 14.8052 1.38924C14.4863 1.06065 14.0539 0.876056 13.6029 0.876056H2.55054C2.09958 0.876056 1.66708 1.06065 1.3482 1.38924C1.02933 1.71782 0.850181 2.16348 0.850181 2.62817V15.4098ZM0.850181 16.6451H0V2.62817C0 1.93113 0.268717 1.26265 0.747036 0.769772C1.22536 0.276895 1.8741 0 2.55054 0H13.6029C14.2793 0 14.9281 0.276895 15.4064 0.769772C15.8847 1.26265 16.1534 1.93113 16.1534 2.62817V10.5127C16.1534 11.2097 15.8847 11.8782 15.4064 12.3711C14.9281 12.8639 14.2793 13.1408 13.6029 13.1408H4.2509L0.850181 16.6451Z" fill="#181818"/>
</svg>
