<svg width="21" height="21" viewBox="0 0 21 21" fill="none" xmlns="http://www.w3.org/2000/svg">
<path d="M20.0385 10.4999C20.0385 11.0663 19.7069 11.5771 19.2345 12.0428C18.9517 12.3207 18.6221 12.5871 18.3317 12.8574C18.0998 13.073 17.8909 13.2848 17.7931 13.5206C17.6906 13.7669 17.6839 14.0726 17.6925 14.3955C17.703 14.7942 17.7462 15.2149 17.749 15.6078C17.7548 16.27 17.6312 16.8575 17.245 17.2447C16.8578 17.6309 16.2703 17.7545 15.6081 17.7487C15.2152 17.7449 14.7945 17.7027 14.3968 17.6922C14.0738 17.6836 13.7672 17.6903 13.5209 17.7928C13.2851 17.8906 13.0733 18.0995 12.8577 18.3314C12.5875 18.6218 12.321 18.9514 12.0431 19.2332C11.5774 19.7066 11.0666 20.0382 10.5002 20.0382C9.93383 20.0382 9.42304 19.7066 8.95729 19.2332C8.67937 18.9514 8.41296 18.6218 8.14271 18.3314C7.92708 18.0995 7.71433 17.8906 7.47954 17.7928C7.23325 17.6903 6.92658 17.6836 6.60458 17.6922C6.20591 17.7027 5.78521 17.7449 5.39229 17.7487C4.73008 17.7545 4.14166 17.6309 3.75546 17.2447C3.36829 16.8575 3.24562 16.27 3.25137 15.6078C3.25425 15.2149 3.29737 14.7942 3.30791 14.3955C3.31654 14.0726 3.30983 13.7669 3.20729 13.5196C3.10954 13.2848 2.90062 13.073 2.66871 12.8574C2.37929 12.5871 2.04962 12.3207 1.76691 12.0428C1.29446 11.5771 0.961914 11.0663 0.961914 10.4999C0.961914 9.93352 1.29446 9.42273 1.76691 8.95698C2.04962 8.67907 2.37929 8.41265 2.66871 8.1424C2.90062 7.92678 3.10954 7.71498 3.20729 7.48019C3.30983 7.23294 3.31654 6.92723 3.30791 6.60428C3.29737 6.20561 3.25425 5.7849 3.25137 5.39198C3.24562 4.72978 3.36829 4.14232 3.75546 3.75515C4.14166 3.36894 4.73008 3.24532 5.39229 3.25107C5.78521 3.2549 6.20591 3.29707 6.60458 3.30761C6.92658 3.31623 7.23325 3.30953 7.47954 3.20698C7.71433 3.10923 7.92708 2.90032 8.14271 2.6684C8.41296 2.37803 8.67937 2.04836 8.95729 1.76661C9.42304 1.29319 9.93383 0.961609 10.5002 0.961609C11.0666 0.961609 11.5774 1.29319 12.0431 1.76661C12.321 2.04836 12.5875 2.37803 12.8577 2.6684C13.0733 2.90032 13.2851 3.10923 13.5209 3.20698C13.7672 3.30953 14.0738 3.31623 14.3968 3.30761C14.7945 3.29707 15.2152 3.2549 15.6081 3.25107C16.2703 3.24532 16.8578 3.36894 17.245 3.75515C17.6312 4.14232 17.7548 4.72978 17.749 5.39198C17.7462 5.7849 17.703 6.20561 17.6925 6.60428C17.6839 6.92723 17.6906 7.23294 17.7931 7.47923C17.8909 7.71498 18.0998 7.92678 18.3317 8.1424C18.6221 8.41265 18.9517 8.67907 19.2345 8.95698C19.7069 9.42273 20.0385 9.93352 20.0385 10.4999ZM19.0802 10.4999C19.0802 10.3197 18.9958 10.1597 18.8827 10.0035C18.7256 9.7869 18.5109 9.58469 18.2867 9.3844C17.728 8.88511 17.1319 8.38773 16.9076 7.84723C16.6757 7.28661 16.738 6.50653 16.7773 5.75998C16.7936 5.45811 16.8032 5.1639 16.7629 4.90228C16.7351 4.71923 16.6862 4.55248 16.5674 4.43365C16.4476 4.31386 16.2809 4.26498 16.0978 4.23719C15.8362 4.19694 15.542 4.20653 15.2401 4.22282C14.4936 4.26211 13.7135 4.3244 13.1538 4.09248C12.6124 3.86823 12.115 3.27311 11.6157 2.71344C11.4154 2.48919 11.2132 2.27453 10.9966 2.11736C10.8404 2.00428 10.6804 1.91994 10.5002 1.91994C10.321 1.91994 10.16 2.00428 10.0038 2.11736C9.78721 2.27453 9.585 2.48919 9.38471 2.71344C8.88541 3.27311 8.38804 3.86823 7.84658 4.09248C7.28691 4.3244 6.50683 4.26211 5.76029 4.22282C5.45841 4.20653 5.16421 4.19694 4.90258 4.23719C4.71858 4.26498 4.55279 4.31386 4.433 4.43365C4.31321 4.55248 4.26529 4.71923 4.2375 4.90228C4.19725 5.1639 4.20683 5.45811 4.22216 5.75998C4.26241 6.50653 4.32471 7.28661 4.09279 7.84627C3.86854 8.38773 3.27341 8.88511 2.71375 9.3844C2.4895 9.58469 2.27483 9.7869 2.11766 10.0035C2.00458 10.1597 1.92025 10.3197 1.92025 10.4999C1.92025 10.6801 2.00458 10.8401 2.11766 10.9963C2.27483 11.2129 2.4895 11.4151 2.71375 11.6154C3.27341 12.1147 3.86854 12.6121 4.09279 13.1535C4.32471 13.7132 4.26241 14.4933 4.22216 15.2398C4.20683 15.5417 4.19725 15.8359 4.2375 16.0975C4.26529 16.2806 4.31321 16.4473 4.433 16.5662C4.55279 16.6859 4.71858 16.7348 4.90258 16.7626C5.16421 16.8029 5.45841 16.7933 5.76029 16.777C6.50683 16.7377 7.28691 16.6754 7.84658 16.9073C8.38804 17.1316 8.88541 17.7267 9.38471 18.2864C9.585 18.5106 9.78721 18.7253 10.0038 18.8824C10.16 18.9955 10.321 19.0799 10.5002 19.0799C10.6804 19.0799 10.8404 18.9955 10.9966 18.8824C11.2132 18.7253 11.4154 18.5106 11.6157 18.2864C12.115 17.7267 12.6124 17.1316 13.1538 16.9073C13.7135 16.6754 14.4936 16.7377 15.2401 16.777C15.542 16.7933 15.8362 16.8029 16.0978 16.7626C16.2809 16.7348 16.4476 16.6859 16.5674 16.5662C16.6862 16.4473 16.7351 16.2806 16.7629 16.0975C16.8032 15.8359 16.7936 15.5417 16.7773 15.2398C16.738 14.4933 16.6757 13.7132 16.9076 13.1526C17.1319 12.6121 17.728 12.1147 18.2867 11.6154C18.5109 11.4151 18.7256 11.2129 18.8827 10.9963C18.9958 10.8401 19.0802 10.6801 19.0802 10.4999ZM8.98796 8.81132C8.89759 8.90161 8.79033 8.97323 8.6723 9.02207C8.55426 9.07092 8.42776 9.09604 8.30001 9.09599C8.17227 9.09595 8.04578 9.07074 7.92778 9.02181C7.80978 8.97289 7.70257 8.9012 7.61227 8.81084C7.52197 8.72048 7.45035 8.61322 7.40151 8.49518C7.35267 8.37714 7.32755 8.25064 7.32759 8.12289C7.32764 7.99515 7.35284 7.86866 7.40177 7.75066C7.4507 7.63266 7.52239 7.52545 7.61275 7.43515C7.79524 7.25279 8.0427 7.15039 8.30069 7.15048C8.55868 7.15057 8.80607 7.25314 8.98843 7.43563C9.1708 7.61812 9.2732 7.86558 9.27311 8.12357C9.27302 8.38156 9.17045 8.62895 8.98796 8.81132ZM13.2727 7.0499C13.363 6.96262 13.4841 6.91432 13.6097 6.91541C13.7353 6.9165 13.8555 6.9669 13.9444 7.05574C14.0332 7.14458 14.0836 7.26476 14.0847 7.3904C14.0858 7.51603 14.0375 7.63707 13.9502 7.72744L7.72775 13.9499C7.63738 14.0372 7.51634 14.0855 7.3907 14.0844C7.26506 14.0833 7.14488 14.0329 7.05604 13.9441C6.9672 13.8552 6.91681 13.735 6.91572 13.6094C6.91462 13.4838 6.96292 13.3627 7.0502 13.2724L13.2727 7.0499ZM12.0125 12.1894C12.1028 12.0991 12.2101 12.0275 12.3281 11.9787C12.4462 11.9298 12.5727 11.9047 12.7004 11.9048C12.8281 11.9048 12.9546 11.93 13.0726 11.9789C13.1906 12.0279 13.2978 12.0996 13.3881 12.1899C13.4784 12.2803 13.5501 12.3875 13.5989 12.5056C13.6477 12.6236 13.6729 12.7501 13.6728 12.8779C13.6728 13.0056 13.6476 13.1321 13.5986 13.2501C13.5497 13.3681 13.478 13.4753 13.3877 13.5656C13.2052 13.748 12.9577 13.8504 12.6997 13.8503C12.4417 13.8502 12.1943 13.7476 12.012 13.5651C11.8296 13.3826 11.7272 13.1352 11.7273 12.8772C11.7274 12.6192 11.83 12.3718 12.0125 12.1894Z" fill="black"/>
</svg>
