<svg width="16" height="12" viewBox="0 0 16 12" fill="none" xmlns="http://www.w3.org/2000/svg">
<path d="M12.8124 7.38855L12.8192 7.38112M5.38741 7.38855L5.39416 7.38112M3.0249 10.0818V4.68179C3.0249 4.32375 3.16713 3.98037 3.42031 3.72719C3.67348 3.47402 4.01686 3.33179 4.3749 3.33179H13.8249C14.183 3.33179 14.5263 3.47402 14.7795 3.72719C15.0327 3.98037 15.1749 4.32375 15.1749 4.68179V10.0818C15.1749 10.4398 15.0327 10.7832 14.7795 11.0364C14.5263 11.2896 14.183 11.4318 13.8249 11.4318H4.3749C4.01686 11.4318 3.67348 11.2896 3.42031 11.0364C3.16713 10.7832 3.0249 10.4398 3.0249 10.0818Z" stroke="black" stroke-width="1.0125" stroke-linecap="round" stroke-linejoin="round"/>
<path d="M3.025 8.73185H2.35C1.99196 8.73185 1.64858 8.58962 1.39541 8.33644C1.14223 8.08327 1 7.73989 1 7.38185V1.98184C1 1.6238 1.14223 1.28042 1.39541 1.02724C1.64858 0.774068 1.99196 0.631836 2.35 0.631836H11.8C12.1581 0.631836 12.5014 0.774068 12.7546 1.02724C13.0078 1.28042 13.15 1.6238 13.15 1.98184V3.33184M9.10002 8.73185C8.74197 8.73185 8.39859 8.58962 8.14542 8.33644C7.89225 8.08327 7.75001 7.73989 7.75001 7.38185C7.75001 7.02381 7.89225 6.68043 8.14542 6.42725C8.39859 6.17408 8.74197 6.03185 9.10002 6.03185C9.45806 6.03185 9.80144 6.17408 10.0546 6.42725C10.3078 6.68043 10.45 7.02381 10.45 7.38185C10.45 7.73989 10.3078 8.08327 10.0546 8.33644C9.80144 8.58962 9.45806 8.73185 9.10002 8.73185Z" stroke="black" stroke-width="1.0125" stroke-linecap="round" stroke-linejoin="round"/>
</svg>
