<svg width="12" height="7" viewBox="0 0 12 7" fill="none" xmlns="http://www.w3.org/2000/svg">
<path d="M3.64 7H0.5C0.367392 7 0.240215 6.94732 0.146447 6.85355C0.0526785 6.75979 0 6.63261 0 6.5C0 6.36739 0.0526785 6.24021 0.146447 6.14645C0.240215 6.05268 0.367392 6 0.5 6H3.64C3.77261 6 3.89979 6.05268 3.99355 6.14645C4.08732 6.24021 4.14 6.36739 4.14 6.5C4.14 6.63261 4.08732 6.75979 3.99355 6.85355C3.89979 6.94732 3.77261 7 3.64 7Z" fill="black"/>
<path d="M7.355 4H0.5C0.367392 4 0.240215 3.94732 0.146447 3.85355C0.0526785 3.75979 0 3.63261 0 3.5C0 3.36739 0.0526785 3.24021 0.146447 3.14645C0.240215 3.05268 0.367392 3 0.5 3H7.355C7.48761 3 7.61479 3.05268 7.70855 3.14645C7.80232 3.24021 7.855 3.36739 7.855 3.5C7.855 3.63261 7.80232 3.75979 7.70855 3.85355C7.61479 3.94732 7.48761 4 7.355 4Z" fill="black"/>
<path d="M11.04 1H0.5C0.367392 1 0.240215 0.947321 0.146447 0.853553C0.0526785 0.759785 0 0.632608 0 0.5C0 0.367392 0.0526785 0.240215 0.146447 0.146447C0.240215 0.0526785 0.367392 0 0.5 0H11.04C11.1726 0 11.2998 0.0526785 11.3936 0.146447C11.4873 0.240215 11.54 0.367392 11.54 0.5C11.54 0.632608 11.4873 0.759785 11.3936 0.853553C11.2998 0.947321 11.1726 1 11.04 1Z" fill="black"/>
</svg>
